<svg width="512" height="447.99999999999994" xmlns="http://www.w3.org/2000/svg">

 <g>
  <title>Layer 1</title>
  <path fill="#00eaff" stroke="#00eaff" stroke-opacity="0" id="imagebot_1" d="M 458.4001182556152 32.32191543579101 C 400.60011825561526 -16.278084564208985 311.30011825561525 -8.978084564208984 256.00011825561523 47.32191543579101 C 200.70011825561522 -8.978084564208984 111.40011825561524 -16.378084564208983 53.600118255615236 32.32191543579101 C -21.599881744384767 95.62191543579101 -10.599881744384765 198.82191543579103 43.000118255615234 253.52191543579102 L 218.40011825561524 432.221915435791 C 228.40011825561524 442.421915435791 241.80011825561525 448.12191543579104 256.00011825561523 448.12191543579104 C 270.30011825561525 448.12191543579104 283.60011825561526 442.521915435791 293.60011825561526 432.321915435791 L 469.00011825561523 253.62191543579104 C 522.5001182556152 198.92191543579102 533.7001182556153 95.72191543579102 458.4001182556152 32.32191543579101 z M 434.80011825561525 219.82191543579103 L 259.4001182556152 398.521915435791 C 257.00011825561523 400.921915435791 255.00011825561523 400.921915435791 252.60011825561523 398.521915435791 L 77.20011825561524 219.82191543579103 C 40.70011825561524 182.621915435791 33.30011825561523 112.221915435791 84.50011825561523 69.12191543579101 C 123.40011825561524 36.42191543579102 183.40011825561524 41.32191543579101 221.00011825561523 79.62191543579101 L 256.00011825561523 115.32191543579103 L 291.00011825561523 79.62191543579101 C 328.80011825561525 41.12191543579101 388.80011825561525 36.42191543579102 427.50011825561523 69.02191543579102 C 478.60011825561526 112.12191543579101 471.00011825561523 182.92191543579102 434.80011825561525 219.82191543579103 z"/>
 </g>
</svg>