<svg width="19" height="21" xmlns="http://www.w3.org/2000/svg">

 <metadata id="imagebot_22">image/svg+xml</metadata>
 <g id="imagebot_12" label="Layer 1">
  <g label="Layer 1" transform="translate(-3.22521e-8 -0.000223406) matrix(0.438947 0 0 0.438947 -1.43382 -107.756)" id="imagebot_13">
   <g id="imagebot_14">
    <path fill="none" stroke="#ffffff" stroke-width="3.00714" stroke-linecap="round" stroke-miterlimit="4" id="imagebot_21" d="M36.86188,252.03988L13.76691,252.03988"/>
    <rect fill="none" stroke="#ffffff" stroke-width="1.52871" stroke-linecap="round" stroke-linejoin="round" stroke-miterlimit="4" ry="1.82499" y="256.74649" x="8.03302" height="13.61692" width="34.54075" id="imagebot_20"/>
    <circle fill="#ffffff" stroke="#ffffff" stroke-width="1.33942" stroke-linecap="round" stroke-linejoin="round" stroke-miterlimit="4" r="2.10975" transform="scale(-1,1)" cy="276.53888" cx="-14.74344" id="imagebot_19"/>
    <circle fill="#ffffff" stroke="#ffffff" stroke-width="1.33942" stroke-linecap="round" stroke-linejoin="round" stroke-miterlimit="4" r="2.10975" transform="scale(-1,1)" cy="276.33005" cx="-35.86738" id="imagebot_18"/>
    <rect fill="none" stroke="#ffffff" stroke-width="3.94684" stroke-linecap="round" stroke-linejoin="round" stroke-miterlimit="4" rx="0" ry="1.19327" y="286.08835" x="7.61187" height="6.45232" width="9.35515" id="imagebot_17"/>
    <path fill="none" stroke="#ffffff" stroke-width="3.94684" stroke-linecap="round" stroke-linejoin="round" stroke-miterlimit="4" id="imagebot_16" d="M47.52743,286.08833L16.96702,286.08833L3.26651,286.08833L3.26651,259.28841C3.26651,251.69813 9.37723,245.6322 16.96737,245.58754L33.84027,245.48824C41.43042,245.44364 47.54113,251.59883 47.54113,259.1891L47.54113,276.8048L47.52743,286.08833z"/>
    <rect fill="none" stroke="#ffffff" stroke-width="3.94684" stroke-linecap="round" stroke-linejoin="round" stroke-miterlimit="4" rx="0" ry="1.19327" y="286.08835" x="33.6814" height="6.45232" width="9.35515" id="imagebot_15"/>
   </g>
  </g>
  <title label="Layer 1"/>
 </g>
</svg>