<svg width="19" height="21" xmlns="http://www.w3.org/2000/svg">

 <metadata id="imagebot_11">image/svg+xml</metadata>
 <g label="Layer 1" id="imagebot_1">
  <g id="imagebot_2" transform="translate(-0.00000472236 0.00000318524) matrix(0.438947 0 0 0.438947 -1.43382 -107.756)" label="Layer 1">
   <g id="imagebot_3">
    <path d="M36.86188,252.03988L13.76691,252.03988" id="imagebot_10" stroke-miterlimit="4" stroke-linecap="round" stroke-width="3.00714" stroke="#1baf5d" fill="none"/>
    <rect id="imagebot_9" width="34.54075" height="13.61692" x="8.03302" y="256.74649" ry="1.82499" stroke-miterlimit="4" stroke-linejoin="round" stroke-linecap="round" stroke-width="1.52871" stroke="#1baf5d" fill="none"/>
    <circle id="imagebot_8" cx="-14.74344" cy="276.53888" transform="scale(-1,1)" r="2.10975" stroke-miterlimit="4" stroke-linejoin="round" stroke-linecap="round" stroke-width="1.33942" stroke="#1baf5d" fill="#ffffff"/>
    <circle id="imagebot_7" cx="-35.86738" cy="276.33005" transform="scale(-1,1)" r="2.10975" stroke-miterlimit="4" stroke-linejoin="round" stroke-linecap="round" stroke-width="1.33942" stroke="#1baf5d" fill="#ffffff"/>
    <rect id="imagebot_6" width="9.35515" height="6.45232" x="7.61187" y="286.08835" ry="1.19327" rx="0" stroke-miterlimit="4" stroke-linejoin="round" stroke-linecap="round" stroke-width="3.94684" stroke="#1baf5d" fill="none"/>
    <path d="M47.52743,286.08833L16.96702,286.08833L3.26651,286.08833L3.26651,259.28841C3.26651,251.69813 9.37723,245.6322 16.96737,245.58754L33.84027,245.48824C41.43042,245.44364 47.54113,251.59883 47.54113,259.1891L47.54113,276.8048L47.52743,286.08833z" id="imagebot_5" stroke-miterlimit="4" stroke-linejoin="round" stroke-linecap="round" stroke-width="3.94684" stroke="#1baf5d" fill="none"/>
    <rect id="imagebot_4" width="9.35515" height="6.45232" x="33.6814" y="286.08835" ry="1.19327" rx="0" stroke-miterlimit="4" stroke-linejoin="round" stroke-linecap="round" stroke-width="3.94684" stroke="#1baf5d" fill="none"/>
   </g>
  </g>
  <title label="Layer 1"/>
 </g>
</svg>