<svg width="86" height="88" xmlns="http://www.w3.org/2000/svg">

 <metadata id="imagebot_218">image/svg+xml</metadata>
 <g id="imagebot_203">
  <g transform="translate(0 -4.17233e-7) matrix(1 0 0 1 -2.43888 -0.139829)" id="imagebot_204">
   <g transform="matrix(1.0526316,0,0,1.0526316,2.8702493,-7.2285925)" id="imagebot_205">
    <g id="imagebot_216">
     <path fill="#1baf5d" d="M67.6,60.8C67.1,60.8 66.6,60.7 66.2,60.5C63.8,59.4 60.81124,58.33259 58.11124,57.63258L60.4,51.2C62.3,51.7 64.2,52.4 66.1,53.1C67.6,49.4 68.4,45.4 68.4,41.2C68.3,26 57.8,13.7 45,13.7C32.2,13.7 21.7,26 21.7,41.2C21.7,45.3 22.5,49.4 24,53.1C25.8,52.4 27.7,51.8 29.7,51.2L31.98876,57.47248C29.28876,58.17247 26.3,59.4 23.9,60.5C22.3,61.3 20.3,60.6 19.5,59.1C16.5,53.7 15,47.5 15,41.2C15,22.3 28.4,7 45,7C61.6,7 75,22.3 75,41.2C75,47.5 73.5,53.7 70.6,59.1C70,60.2 68.8,60.8 67.6,60.8z" id="imagebot_217" stroke="#1baf5d"/>
    </g>
    <g id="imagebot_214">
     <path fill="#1baf5d" d="M43.3,64.6C34.4,63.6 27.7,55.2 24.9,41.6C24.6,40.3 24.5,39 24.4,37.4C24.4,36.9 24.5,36.5 24.9,36.1C25.2,35.8 25.7,35.6 26.1,35.6L35.3,35.6L36.8,24.8C36.9,24 37.6,23.4 38.5,23.4C39.3,23.4 40,24 40.2,24.8L41.7,35.6L44,35.6L44.5,30.5C44.6,29.6 45.3,29 46.2,29L46.2,29C47.1,29 47.8,29.7 47.9,30.5L48.4,35.6L63.9,35.6C64.4,35.6 64.8,35.8 65.1,36.1C65.4,36.4 65.6,36.9 65.6,37.4C65.5,38.9 65.4,40.3 65.1,41.6C63.6,49 61,54.8 57.4,58.8L57.4,58.8C55.84813,60.61303 55.48568,60.8713 53.4,62.2C52.73806,62.63639 52.13224,62.91689 51.5,63.3C48.33127,64.5171 47.29253,64.78789 43.3,64.6zM54.9,56.5L54.9,56.5L54.9,56.5C58,53 60.4,47.7 61.8,41C61.9,40.4 62,39.8 62.1,39.1L46.9,39.1C46.7,39.1 46.4,39.1 46.2,39C46,39.1 45.8,39.1 45.5,39.1L40.2,39.1C39.4,39.1 38.7,38.5 38.5,37.6L38.5,37.3L38.5,37.6C38.4,38.4 37.7,39.1 36.8,39.1L27.9,39.1C28,39.8 28.1,40.4 28.2,41C30.7,53.1 37.22159,61.29487 43.6,61.3C49.97841,61.3051 51.70901,59.69099 54.9,56.5z" id="imagebot_215" stroke="#1baf5d"/>
    </g>
    <g id="imagebot_209">
     <g id="imagebot_212">
      <path fill="#1baf5d" d="M21,83L14.3,83C14.3,70.5 25.1,60.3 38.5,60.3L38.5,67C28.8,67 21,74.2 21,83z" id="imagebot_213" stroke="#1baf5d"/>
     </g>
     <g id="imagebot_210">
      <path fill="#1baf5d" d="M75.7,83L69,83C69,74.2 61.2,67 51.5,67L51.5,60.3C64.9,60.3 75.7,70.5 75.7,83z" id="imagebot_211" stroke="#1baf5d"/>
     </g>
    </g>
    <g id="imagebot_206">
     <path fill="#1baf5d" d="M37.9,41.6C36.8,41.6 35.9,42.5 35.9,43.6C35.9,44.7 36.8,45.6 37.9,45.6C39,45.6 39.9,44.7 39.9,43.6C39.9,42.5 39,41.6 37.9,41.6z" id="imagebot_208" stroke="#1baf5d"/>
     <path fill="#1baf5d" d="M52.1,41.6C51,41.6 50.1,42.5 50.1,43.6C50.1,44.7 51,45.6 52.1,45.6C53.2,45.6 54.1,44.7 54.1,43.6C54.1,42.5 53.2,41.6 52.1,41.6z" id="imagebot_207" stroke="#1baf5d"/>
    </g>
   </g>
  </g>
  <title/>
 </g>
 <g display="none" id="imagebot_195">
  <g transform="translate(0 -4.17233e-7) matrix(1 0 0 1 -2.2 0.00000135601)" id="imagebot_196" display="inline">
   <g id="imagebot_201">
    <path id="imagebot_202" d="M75.7,84.1C75.1,84.1 74.5,84 73.9,83.7C69.6,81.7 64.1,79 59.1,76.1C57.6,75.2 55.1,72.1 55.7,69.3L57,63.6C56.8,63.4 56.4,63.1 55.7,63C52.3,62.5 48.8,62.2 45.1,62.2C41.5,62.2 37.9,62.5 34.6,63C33.9,63.1 33.5,63.4 33.3,63.6L34.6,69.3C35.2,72.1 32.5,75.2 31.3,75.9C25.4,79.7 21.5,81.6 16.1,83.7L15.3,84L14.4,84C12.1,84 8.9,82.3 7.8,79.9C5.7,75.2 4.7,70.3 4.7,65.2C4.7,63.8 4.8,62.3 5,60.8L5.1,59.7L5.9,59C15.2,49.2 29.4,43.6 44.9,43.6L45.3,43.6C60.9,43.7 74.9,49.3 84.2,59L85,59.8L85.1,60.9C85.3,62.4 85.4,63.8 85.4,65.3C85.4,70.4 84.4,75.3 82.3,80C81.1,82.4 77.9,84.1 75.7,84.1zM13.9,77C14,77.1 14.2,77.2 14.3,77.2C18.8,75.4 22.3,73.6 27.5,70.3C27.5,70.3 27.6,70.2 27.7,70L26.5,64.8C26.1,63.2 26.5,61.5 27.5,60C28.8,58.1 30.9,56.8 33.5,56.4C37.1,55.8 41,55.5 45,55.5C49.1,55.5 53,55.8 56.6,56.4C59.1,56.8 61.3,58.1 62.6,60C63.6,61.5 63.9,63.2 63.5,64.8L62.3,70C62.4,70.2 62.5,70.3 62.6,70.4C66.8,72.8 71.7,75.2 75.7,77.1C75.8,77 75.9,77 76,76.9C77.6,73.2 78.4,69.2 78.4,65.1C78.4,64.3 78.4,63.5 78.3,62.7C70.3,54.8 57.9,50.2 45,50.2L44.5,50.2C31.7,50.2 19.4,54.9 11.4,62.7C11.3,63.5 11.3,64.3 11.3,65.2C11.4,69.3 12.3,73.3 13.9,77z"/>
   </g>
   <g id="imagebot_199">
    <path id="imagebot_200" d="M79.7,31C77.8,31 76.3,29.5 76.3,27.6L76.3,12.6L61.3,12.6C59.4,12.6 57.9,11.1 57.9,9.2C57.9,7.3 59.4,5.8 61.3,5.8L61.3,5.8L79.7,5.8C81.6,5.8 83.1,7.3 83.1,9.2L83.1,27.6C83,29.5 81.5,31 79.7,31z"/>
   </g>
   <g id="imagebot_197">
    <path id="imagebot_198" d="M45,36.6C42,36.6 39,35.7 36.6,34L10.2,14.3C8.7,13.1 8.4,11 9.5,9.6C10.6,8.1 12.7,7.8 14.2,8.9L40.6,28.6C42.9,30.3 47,30.3 49.3,28.6L75.8,8.9C77.3,7.8 79.4,8.1 80.5,9.6C81.6,11.1 81.3,13.2 79.8,14.3L53.4,34C51,35.7 48,36.6 45,36.6z"/>
   </g>
  </g>
  <title display="none"/>
 </g>
 <g display="none" id="imagebot_182">
  <g transform="translate(0 -4.17233e-7) matrix(1 0 0 1 -2.2 0.00000135601)" id="imagebot_183" display="inline">
   <path id="imagebot_194" d="M33.8,72.1C33.8,74.1 32.2,75.7 30.2,75.7C28.2,75.7 26.6,74.1 26.6,72.1C26.6,70.1 28.2,68.5 30.2,68.5C32.2,68.5 33.8,70.1 33.8,72.1z"/>
   <g id="imagebot_192">
    <path id="imagebot_193" d="M44.7,65.5L15.6,65.5C14.7,65.5 14,64.8 14,63.9L14,25.5C14,24.6 14.7,23.9 15.6,23.9L38.1,23.9C39,23.9 39.7,24.6 39.7,25.5C39.7,26.4 39,27.1 38.1,27.1L17.3,27.1L17.3,62.1L43.1,62.1L43.1,41.7C43.1,40.8 43.8,40.1 44.7,40.1C45.6,40.1 46.3,40.8 46.3,41.7L46.3,63.8C46.4,64.7 45.6,65.5 44.7,65.5z"/>
   </g>
   <g id="imagebot_190">
    <path id="imagebot_191" d="M51.3,85.3L9,85.3C7.1,85.3 5.6,83.8 5.6,81.9L5.6,15.5C5.6,13.6 7.1,12.1 9,12.1L38.1,12.1L38.1,18.8L12.4,18.8L12.4,78.5L48,78.5L48,41.8L54.7,41.8L54.7,81.9C54.7,83.8 53.2,85.3 51.3,85.3z"/>
   </g>
   <g id="imagebot_188">
    <path id="imagebot_189" d="M79.8,43L42.2,43C39.7,43 37.7,40.8 37.7,38.1L37.7,9.6C37.7,6.9 39.7,4.7 42.2,4.7L79.9,4.7C82.4,4.7 84.4,6.9 84.4,9.6L84.4,38.1C84.3,40.8 82.3,43 79.8,43zM42.2,8.1C41.6,8.1 41.1,8.8 41.1,9.7L41.1,38.2C41.1,39.1 41.6,39.8 42.2,39.8L79.9,39.8C80.5,39.8 81,39.1 81,38.2L81,9.6C81,8.7 80.5,8 79.9,8L42.2,8L42.2,8.1z"/>
   </g>
   <g id="imagebot_186">
    <path id="imagebot_187" d="M79.8,43L42.2,43C40.3,43 38.6,41.7 38,39.7C37.8,39.1 38,38.5 38.4,38L53,22.9C53.6,22.2 54.7,22.2 55.4,22.9C56.1,23.5 56.1,24.6 55.4,25.3L41.7,39.5C41.9,39.6 42,39.7 42.2,39.7L79.9,39.7C80.1,39.7 80.3,39.6 80.4,39.5L66.4,25.1C65.8,24.4 65.8,23.4 66.4,22.7C67.1,22 68.1,22.1 68.8,22.7L83.7,38C84.1,38.4 84.3,39.1 84.1,39.7C83.4,41.7 81.7,43 79.8,43z"/>
   </g>
   <g id="imagebot_184">
    <path id="imagebot_185" d="M61,32.3C60.5,32.3 60.1,32.1 59.8,31.8L38.3,9.7C37.9,9.2 37.8,8.5 38,8C38.6,6.1 40.3,4.7 42.2,4.7L79.9,4.7C81.8,4.7 83.5,6 84.1,8C84.3,8.6 84.1,9.2 83.7,9.7L62.2,31.8C61.9,32.1 61.5,32.3 61,32.3zM41.7,8.2L61,28.2L80.3,8.2C80.1,8.1 80,8 79.8,8L42.2,8C42,8.1 41.8,8.1 41.7,8.2z"/>
   </g>
  </g>
  <title display="none"/>
 </g>
 <g display="none" id="imagebot_169">
  <g transform="translate(0 -4.17233e-7) matrix(1 0 0 1 -2.2 0.00000135601)" id="imagebot_170" display="inline">
   <g id="imagebot_180">
    <path id="imagebot_181" d="M77.8,49C77.1,49 76.5,48.9 76,48.6C71.4,46.5 65.5,43.6 60.2,40.5C58.7,39.6 56,36.4 56.7,33.6L58.1,27.4C57.9,27.2 57.4,26.8 56.5,26.6C52.7,26 49,25.7 45,25.7C41.1,25.7 37.3,26 33.7,26.6C32.8,26.7 32.2,27.2 32,27.4L33.4,33.6C34,36.5 31.2,39.7 30,40.5C23.7,44.5 19.6,46.6 13.8,48.8C13.3,49 12.8,49.1 12.3,49.1C10,49.1 6.6,47.3 5.5,44.8C3.3,39.8 2.2,34.6 2.2,29.2C2.2,27.7 2.3,26.2 2.5,24.6L2.6,23.5L3.4,22.7C13.3,12.3 28.4,6.3 44.9,6.3C61.6,6.3 76.8,12.3 86.7,22.7L87.5,23.5L87.6,24.6C87.8,26.3 87.9,27.8 87.9,29.2C87.9,34.6 86.8,39.9 84.6,44.8C83.4,47.2 80.1,49 77.8,49zM11.5,41.8C11.6,41.9 11.9,42.1 12.1,42.2C17,40.3 20.7,38.4 26.3,34.8C26.3,34.8 26.5,34.5 26.6,34.3L25.3,28.6C24.9,27 25.3,25.2 26.3,23.7C27.6,21.7 29.9,20.4 32.5,20C36.4,19.4 40.5,19.1 44.8,19C49.1,19 53.3,19.4 57.2,20C59.8,20.4 62.1,21.8 63.4,23.7C64.4,25.2 64.8,27 64.4,28.7L63.1,34.4C63.2,34.6 63.4,34.9 63.5,35C68,37.6 73.4,40.2 77.7,42.3C77.9,42.2 78.2,42 78.3,41.9C79.9,38.1 80.9,33.7 80.9,29.2C80.9,28.4 80.9,27.5 80.8,26.5C72.2,18 58.9,13 45,13L44.6,13C30.7,13 17.4,18 8.9,26.5C8.8,27.4 8.8,28.3 8.8,29.2C8.9,33.5 9.8,37.8 11.5,41.8z"/>
   </g>
   <path id="imagebot_179" d="M31.3,46.9C28.5,46.9 26.2,49.2 26.2,52C26.2,54.8 28.5,57.1 31.3,57.1C34.1,57.1 36.4,54.8 36.4,52C36.4,49.2 34.2,46.9 31.3,46.9z"/>
   <path id="imagebot_178" d="M44.7,46.9C41.9,46.9 39.6,49.2 39.6,52C39.6,54.8 41.9,57.1 44.7,57.1C47.5,57.1 49.8,54.8 49.8,52C49.8,49.2 47.5,46.9 44.7,46.9z"/>
   <path id="imagebot_177" d="M58.1,46.9C55.3,46.9 53,49.2 53,52C53,54.8 55.3,57.1 58.1,57.1C60.9,57.1 63.2,54.8 63.2,52C63.2,49.2 60.9,46.9 58.1,46.9z"/>
   <path id="imagebot_176" d="M31.3,60.2C28.5,60.2 26.2,62.5 26.2,65.3C26.2,68.1 28.5,70.4 31.3,70.4C34.1,70.4 36.4,68.1 36.4,65.3C36.4,62.5 34.2,60.2 31.3,60.2z"/>
   <path id="imagebot_175" d="M44.7,60.2C41.9,60.2 39.6,62.5 39.6,65.3C39.6,68.1 41.9,70.4 44.7,70.4C47.5,70.4 49.8,68.1 49.8,65.3C49.8,62.5 47.5,60.2 44.7,60.2z"/>
   <path id="imagebot_174" d="M58.1,60.2C55.3,60.2 53,62.5 53,65.3C53,68.1 55.3,70.4 58.1,70.4C60.9,70.4 63.2,68.1 63.2,65.3C63.2,62.5 60.9,60.2 58.1,60.2z"/>
   <path id="imagebot_173" d="M31.3,73.6C28.5,73.6 26.2,75.9 26.2,78.7C26.2,81.5 28.5,83.8 31.3,83.8C34.1,83.8 36.4,81.5 36.4,78.7C36.4,75.9 34.2,73.6 31.3,73.6z"/>
   <path id="imagebot_172" d="M44.7,73.6C41.9,73.6 39.6,75.9 39.6,78.7C39.6,81.5 41.9,83.8 44.7,83.8C47.5,83.8 49.8,81.5 49.8,78.7C49.8,75.9 47.5,73.6 44.7,73.6z"/>
   <path id="imagebot_171" d="M58.1,73.6C55.3,73.6 53,75.9 53,78.7C53,81.5 55.3,83.8 58.1,83.8C60.9,83.8 63.2,81.5 63.2,78.7C63.2,75.9 60.9,73.6 58.1,73.6z"/>
  </g>
  <title display="none"/>
 </g>
 <g display="none" id="imagebot_159">
  <g transform="translate(0 -4.17233e-7) matrix(1 0 0 1 -2.2 0.00000135601)" id="imagebot_160" display="inline">
   <g id="imagebot_167">
    <path id="imagebot_168" d="M16.5,71.3C15.7,71.3 14.8,71.3 14,71.2C12.5,71.1 11.2,70 10.9,68.5C10.6,67 11.4,65.5 12.7,64.8C15.1,63.6 17.1,62.1 18.6,60.2C8.6,55.1 2.3,46.2 2.3,36.4C2.3,21 17.8,8.4 36.9,8.4C56,8.4 71.5,21 71.5,36.4C71.5,51.8 56,64.4 36.9,64.4C36.5,64.4 36.1,64.4 35.7,64.4C30.8,68.9 24.1,71.3 16.5,71.3zM36.9,15.3C21.6,15.3 9,24.8 9,36.5C9,44.5 15.2,52 24.7,55.6C25.6,55.9 26.3,56.6 26.6,57.5C27,58.4 26.9,59.4 26.5,60.2L26.3,60.5C26.1,60.9 25.9,61.3 25.7,61.7C25.4,62.2 25.1,62.7 24.7,63.2C27.5,62.2 30,60.7 31.9,58.7C32.6,58 33.6,57.7 34.5,57.7C35.2,57.7 36,57.8 36.8,57.8C52.2,57.8 64.7,48.3 64.7,36.5C64.7,24.7 52.3,15.3 36.9,15.3z"/>
   </g>
   <g id="imagebot_165">
    <path id="imagebot_166" d="M75.7,81.5C71.3,81.5 67.2,80.3 63.8,78.1C63.6,78.1 63.4,78.2 63.2,78.2C50.1,80.6 37.3,74.6 32.8,64.1C32.1,62.4 32.9,60.4 34.6,59.7C36.3,59 38.3,59.8 39,61.5C42.3,69.2 52,73.5 62.1,71.6C62.7,71.5 63.2,71.4 63.8,71.2C64.8,70.9 65.9,71.2 66.7,71.8C68,72.8 69.4,73.6 71,74C71,74 71,74 71,74C70.7,73.7 70.5,73.4 70.3,73.1C69.8,72.3 69.5,71.3 69.7,70.4C69.9,69.5 70.4,68.6 71.1,68.1C78,63.8 81.8,56.7 80.8,50C79.9,44.5 76.1,40 70.2,37.6C68.5,36.9 67.7,34.9 68.4,33.2C69.1,31.5 71.1,30.6 72.8,31.4C80.8,34.6 86.3,41.2 87.5,49C88.8,57.2 85.1,65.7 77.9,71.6C79.2,72.8 80.8,73.6 82.6,74.2C84,74.7 85,76 84.9,77.5C84.9,79 83.8,80.3 82.4,80.7C80.1,81.2 77.9,81.5 75.7,81.5z"/>
   </g>
   <g id="imagebot_161">
    <path id="imagebot_164" d="M23.6,32.6C21.2,32.6 19.2,34.6 19.2,37C19.2,39.4 21.2,41.4 23.6,41.4C26,41.4 28,39.4 28,37C28,34.6 26,32.6 23.6,32.6z"/>
    <path id="imagebot_163" d="M37,32.6C34.6,32.6 32.6,34.6 32.6,37C32.6,39.4 34.6,41.4 37,41.4C39.4,41.4 41.4,39.4 41.4,37C41.4,34.6 39.4,32.6 37,32.6z"/>
    <path id="imagebot_162" d="M50.5,32.6C48.1,32.6 46.1,34.6 46.1,37C46.1,39.4 48.1,41.4 50.5,41.4C52.9,41.4 54.9,39.4 54.9,37C54.9,34.6 52.9,32.6 50.5,32.6z"/>
   </g>
  </g>
  <title display="none"/>
 </g>
 <g display="none" id="imagebot_151">
  <g transform="translate(0 -4.17233e-7) matrix(1 0 0 1 -2.2 0.00000135601)" id="imagebot_152" display="inline">
   <g id="imagebot_157">
    <path id="imagebot_158" d="M83.4,84.5L65.4,84.5C63.5,84.5 62,83 62,81.1L62,8.9C62,7 63.5,5.5 65.4,5.5L83.3,5.5C85.2,5.5 86.7,7 86.7,8.9L86.7,81.2C86.7,83 85.2,84.5 83.4,84.5zM68.8,77.8L80,77.8L80,12.2L68.8,12.2L68.8,77.8z"/>
   </g>
   <g id="imagebot_155">
    <path id="imagebot_156" d="M54,84.5L36,84.5C34.1,84.5 32.6,83 32.6,81.1L32.6,50.3C32.6,48.4 34.1,46.9 36,46.9L54,46.9C55.9,46.9 57.4,48.4 57.4,50.3L57.4,81.1C57.3,83 55.8,84.5 54,84.5zM39.4,77.8L50.6,77.8L50.6,53.7L39.4,53.7L39.4,77.8z"/>
   </g>
   <g id="imagebot_153">
    <path id="imagebot_154" d="M24.6,84.5L6.6,84.5C4.7,84.5 3.2,83 3.2,81.1L3.2,35.2C3.2,33.3 4.7,31.8 6.6,31.8L24.5,31.8C26.4,31.8 27.9,33.3 27.9,35.2L27.9,81.1C27.9,83 26.4,84.5 24.6,84.5zM10,77.8L21.2,77.8L21.2,38.6L10,38.6L10,77.8z"/>
   </g>
  </g>
  <title display="none"/>
 </g>
 <g display="none" id="imagebot_145">
  <g transform="translate(0 -4.17233e-7) matrix(1 0 0 1 -2.2 0.00000135601)" id="imagebot_146" display="inline">
   <g id="imagebot_149">
    <path id="imagebot_150" d="M45,82.5C40.3,82.5 35.7,81.6 31.3,79.8C19.9,74.8 15,57.8 14.9,49.7L14.9,26.4C14.7,16.5 23.2,8 33.7,7.5L56.2,7.5C66.9,8 75.3,16.5 75.1,26.5L75.1,49.8C75,57.9 70.1,75 58.8,79.9C54.3,81.6 49.7,82.5 45,82.5zM56,14.2L33.8,14.2C27.2,14.5 21.5,20.1 21.6,26.3L21.6,49.7C21.7,57.3 26.5,70.4 33.9,73.6C40.8,76.4 49,76.5 56.1,73.6C63.4,70.4 68.2,57.3 68.3,49.7L68.3,26.4C68.5,20.1 62.8,14.5 56,14.2z"/>
   </g>
   <g id="imagebot_147">
    <path id="imagebot_148" d="M44.5,31.7C42.6,31.7 41.1,30.2 41.1,28.3L41.1,10.8C41.1,8.9 42.6,7.4 44.5,7.4C46.4,7.4 47.9,8.9 47.9,10.8L47.9,28.3C47.9,30.2 46.4,31.7 44.5,31.7z"/>
   </g>
  </g>
  <title display="none"/>
 </g>
 <g display="none" id="imagebot_136">
  <g transform="translate(0 -4.17233e-7) matrix(1 0 0 1 -2.2 0.00000135601)" id="imagebot_137" display="inline">
   <g id="imagebot_140">
    <g id="imagebot_143">
     <path id="imagebot_144" d="M52.3,81.2C51.4,81.2 50.6,80.4 50.6,79.5L50.6,59.3C50.6,58.4 51.4,57.6 52.3,57.6L72.5,57.6C73.4,57.6 74.2,58.4 74.2,59.3C74.2,60.2 73.4,61 72.5,61L54,61L54,79.5C54,80.4 53.2,81.2 52.3,81.2z"/>
    </g>
    <g id="imagebot_141">
     <path id="imagebot_142" d="M52.3,82.9L17.6,82.9C15.7,82.9 14.2,81.4 14.2,79.5L14.2,10.5C14.2,8.6 15.7,7.1 17.6,7.1L72.5,7.1C74.4,7.1 75.9,8.6 75.9,10.5L75.9,59.3C75.9,60.2 75.5,61 74.9,61.7L54.7,81.9C54,82.5 53.2,82.9 52.3,82.9zM20.9,76.1L50.9,76.1L69.1,57.9L69.1,13.9L20.9,13.9L20.9,76.1z"/>
    </g>
   </g>
   <g id="imagebot_138">
    <path id="imagebot_139" d="M42.7,47.2C41.9,47.2 41.2,46.9 40.6,46.4L32.2,39.5C30.8,38.3 30.5,36.2 31.7,34.8C32.9,33.4 35,33.1 36.4,34.3L42.2,39L55.5,22.6C56.7,21.2 58.8,20.9 60.2,22.1C61.6,23.3 61.9,25.4 60.7,26.8L45.3,46C44.7,46.7 43.9,47.1 43,47.2C42.9,47.2 42.8,47.2 42.7,47.2z"/>
   </g>
  </g>
  <title display="none"/>
 </g>
 <g display="none" id="imagebot_120">
  <g transform="translate(0 -4.17233e-7) matrix(1 0 0 1 -2.2 0.00000135601)" id="imagebot_121" display="inline">
   <g id="imagebot_134">
    <path id="imagebot_135" d="M30.2,67.1C23.4,67.1 17.8,61.5 17.8,54.7C17.8,47.9 23.4,42.3 30.2,42.3C37,42.3 42.6,47.9 42.6,54.7C42.6,61.5 37,67.1 30.2,67.1zM30.2,49C27.1,49 24.5,51.6 24.5,54.7C24.5,57.8 27,60.4 30.2,60.4C33.3,60.4 35.9,57.8 35.9,54.7C35.9,51.6 33.3,49 30.2,49z"/>
   </g>
   <g id="imagebot_132">
    <path id="imagebot_133" d="M63.7,29.5C56.5,29.5 50.7,23.7 50.7,16.5C50.7,9.3 56.5,3.5 63.7,3.5C70.9,3.5 76.7,9.3 76.7,16.5C76.7,23.7 70.9,29.5 63.7,29.5zM63.7,10.2C60.2,10.2 57.4,13 57.4,16.5C57.4,20 60.2,22.8 63.7,22.8C67.2,22.8 70,20 70,16.5C70,13 67.2,10.2 63.7,10.2z"/>
   </g>
   <g id="imagebot_130">
    <path id="imagebot_131" d="M45.8,43.2L45.8,43.2C43.9,43.2 42.4,41.7 42.4,39.8L42.4,29.7L32.3,29.7C30.4,29.7 28.9,28.2 28.9,26.3C28.9,24.4 30.4,22.9 32.3,22.9L45.8,22.9C46.7,22.9 47.5,23.3 48.2,23.9C48.8,24.5 49.2,25.4 49.2,26.3L49.2,39.8C49.1,41.7 47.6,43.2 45.8,43.2z"/>
   </g>
   <g id="imagebot_128">
    <path id="imagebot_129" d="M32.3,48.7C32,48.7 31.6,48.6 31.3,48.5C29.5,47.9 28.6,46 29.1,44.3C31.1,38 34.5,32.5 39.2,27.8C40.2,26.8 41.3,25.8 42.4,24.9C43.8,23.7 46,23.9 47.1,25.4C48.3,26.8 48.1,29 46.6,30.1C45.7,30.8 44.8,31.6 43.9,32.5C40,36.4 37.2,41 35.5,46.3C35,47.8 33.7,48.7 32.3,48.7z"/>
   </g>
   <g id="imagebot_126">
    <path id="imagebot_127" d="M45,86.6C34.9,86.6 24.7,82.7 17,75C1.5,59.5 1.5,34.4 17,19C27.2,8.8 42.1,5 56,9C57.8,9.5 58.8,11.4 58.3,13.2C57.8,15 55.9,16 54.1,15.5C42.6,12.2 30.2,15.3 21.7,23.8C8.9,36.6 8.9,57.5 21.7,70.3C34.5,83 55.4,83 68.2,70.2C80.8,57.6 81.1,37.6 68.9,24.6C67.6,23.2 67.7,21.1 69.1,19.8C70.5,18.5 72.6,18.6 73.9,20C88.5,35.7 88.1,59.8 73,75C65.2,82.7 55.1,86.6 45,86.6z"/>
   </g>
   <g id="imagebot_124">
    <path id="imagebot_125" d="M56.3,62.1C55.4,62.1 54.6,61.8 53.9,61.1C52.6,59.8 52.6,57.7 53.9,56.3L64.3,45.9C65.6,44.6 67.7,44.6 69.1,45.9C70.4,47.2 70.4,49.3 69.1,50.7L58.7,61.1C58.1,61.7 57.2,62.1 56.3,62.1z"/>
   </g>
   <g id="imagebot_122">
    <path id="imagebot_123" d="M66.7,62.1C65.8,62.1 65,61.8 64.3,61.1L54,50.7C52.7,49.4 52.7,47.3 54,45.9C55.3,44.6 57.4,44.6 58.8,45.9L69.2,56.3C70.5,57.6 70.5,59.7 69.2,61.1C68.5,61.7 67.6,62.1 66.7,62.1z"/>
   </g>
  </g>
  <title display="none"/>
 </g>
 <g display="none" id="imagebot_110">
  <g transform="translate(0 -4.17233e-7) matrix(1 0 0 1 -2.2 0.00000135601)" id="imagebot_111" display="inline">
   <g id="imagebot_118">
    <path id="imagebot_119" d="M75.5,87.9L14.5,87.9C10.1,87.9 6.6,84.3 6.6,80L6.6,35.5C6.6,34.5 7,33.6 7.8,32.9L43,2.9C44.3,1.8 46.1,1.8 47.4,2.9L82.3,32.9C83,33.5 83.5,34.5 83.5,35.5L83.5,80C83.5,84.3 79.9,87.9 75.5,87.9zM13.3,37L13.3,80C13.3,80.7 13.8,81.2 14.5,81.2L75.6,81.2C76.3,81.2 76.8,80.7 76.8,80L76.8,37L45.1,9.9L13.3,37z"/>
   </g>
   <g id="imagebot_116">
    <path id="imagebot_117" d="M75.5,86.2L14.5,86.2C11.9,86.2 9.6,84.6 8.7,82.2C8.5,81.5 8.6,80.8 9.2,80.3L44,49.3C44.6,48.7 45.6,48.7 46.2,49.3L81,80.3C81.5,80.8 81.7,81.5 81.5,82.2C80.4,84.6 78.1,86.2 75.5,86.2zM12.4,81.9C12.9,82.5 13.7,82.8 14.5,82.8L75.6,82.8C76.4,82.8 77.2,82.5 77.7,81.9L45,52.8L12.4,81.9z"/>
   </g>
   <g id="imagebot_114">
    <path id="imagebot_115" d="M55.7,61.6C55.2,61.6 54.8,61.4 54.4,61C53.8,60.3 53.8,59.2 54.5,58.6L78.6,37.1C79.3,36.5 80.4,36.5 81,37.2C81.6,37.9 81.6,39 80.9,39.6L56.8,61.1C56.5,61.4 56.1,61.6 55.7,61.6z"/>
   </g>
   <g id="imagebot_112">
    <path id="imagebot_113" d="M34.5,61.7C34.1,61.7 33.7,61.6 33.4,61.3L9.1,39.7C8.4,39 8.3,38 9,37.3C9.6,36.6 10.7,36.5 11.4,37.2L35.7,58.8C36.4,59.4 36.5,60.5 35.8,61.2C35.4,61.5 34.9,61.7 34.5,61.7z"/>
   </g>
  </g>
  <title display="none"/>
 </g>
</svg>