<svg width="8" height="6" xmlns="http://www.w3.org/2000/svg">

 <metadata id="imagebot_4">image/svg+xml</metadata>
 <g id="imagebot_2" label="Layer 1">
  <path transform="translate(0.00662796 -0.109464) matrix(1 0 0 1 0 -290.65)" stroke="#ffffff" label="Layer 1" fill="#ffffff" stroke-width="0.01325" id="imagebot_3" d="M 1.1200538231527708 296.4390106608005 C 1.0073643423153178 296.41870371880543 0.9223881513534233 296.3370377927403 0.8105241727675828 296.14146761692825 C 0.7695438824196827 296.06984562233964 0.764237082230746 296.052403560128 0.7645319044634648 295.9905895657396 C 0.7652563248067165 295.8400232808802 0.8894944136743791 295.671003799768 1.1548259996288515 295.45963465456146 C 1.3678561214990248 295.28991580573745 1.474135324647937 295.1846061953411 1.4898619848903891 295.1276456443506 C 1.5008041014704347 295.08795863323144 1.4974431280174412 295.0731286672931 1.45104653207988 294.9549186717538 C 1.3801712673343034 294.77444809762443 1.3683362605637384 294.71116795887616 1.3609488577610436 294.47339136295886 C 1.3484905125555877 294.0724767156027 1.4133177097842493 293.77200980912784 1.5863530899130396 293.4285275753148 C 1.7566676820084544 293.09048018697337 1.9577364447226118 292.8502263126551 2.3017518728435253 292.57371485684087 C 2.6234703166785405 292.31513417802483 3.1026069858006182 292.07042288780804 3.466889336547852 291.97865404744744 C 3.6958145885077456 291.9210194070961 4.040815565235175 291.89203356458023 4.728046189702479 291.8728304439135 C 5.351881610642898 291.85538838170186 5.529954239204995 291.83946302055216 5.79655777250634 291.777109754675 C 6.049894305335342 291.7178741520917 6.181595608436971 291.6454601025041 6.373449070505577 291.4598833014664 C 6.598238387715046 291.24244735201233 6.663950051641864 291.20506909695405 6.840127394422199 291.19445218952086 C 6.961737353672483 291.1868686842115 7.0121351084826555 291.204226485253 7.087356895287742 291.2782077926045 C 7.241860592217071 291.43017281288763 7.3442818358635495 291.7200986469825 7.423589016464882 292.2299629872835 C 7.490193570582219 292.6581866798704 7.431675569133738 293.234735310192 7.273044360946347 293.7127994848956 C 7.1118776815575755 294.1985819827808 6.883584191524936 294.56473047135194 6.5092863083576304 294.9377630975206 C 6.188561836621496 295.2574162724282 5.838683657815661 295.5058013496616 5.385786167405548 295.73537090761073 C 4.504545666824609 296.1820646486845 3.606028583406354 296.27421266431054 2.731998592288478 296.0075260609305 C 2.6801604202841665 295.9916849609509 2.5292451311016424 295.9260455094397 2.3966256673324047 295.86163627101195 C 2.11213905974358 295.7234310998069 2.030970287329939 295.6908473053276 1.9711382210727684 295.6908473053276 C 1.8934904684670242 295.6908473053276 1.8452828216713342 295.74865046801915 1.6030568752696452 296.13221574045076 C 1.529873573616499 296.24810012769524 1.4043972313714175 296.3817383434806 1.3365712708613886 296.41604106583003 C 1.280849868877553 296.444268557815 1.1977942341745118 296.4530317195059 1.1200538231527708 296.43904436526856 L 1.1200538231527708 296.4390106608005 z M 2.5680184664503343 294.9684678679066 C 2.592328665411082 294.9524582455868 2.7329504469255412 294.8206990538947 2.8805131861474353 294.67562659732613 C 3.2043543500580256 294.35725419220415 3.3636425906497607 294.2209364712094 3.5952380896888494 294.0640084680072 C 4.06626293566498 293.7448187295352 4.507477042167069 293.61006826630444 5.170153186395087 293.58298672623295 C 5.3686780544155 293.5745606092225 5.373277281245912 293.57413930337196 5.426353706627642 293.5412774470313 C 5.50356343763049 293.4935013635822 5.547037081717955 293.40961936874334 5.539481209067992 293.32289777247206 C 5.532826650100912 293.24605158533694 5.4936152931493245 293.179797027284 5.430026349298082 293.13770014669984 C 5.391092967594486 293.11191622864794 5.369730990960924 293.10677629727155 5.284847458415026 293.10273176110655 C 5.230103181545344 293.1002039260034 5.103776066571561 293.10441698450865 5.004117728420275 293.11141066162736 C 4.201299941742512 293.1708147865508 3.5045507709045753 293.46160008458065 2.883806771661521 293.99618665219026 C 2.61564489227295 294.22713809332913 2.2524828660100478 294.59867087066993 2.2156722043820265 294.6797301163102 C 2.1893993317006077 294.7376175401719 2.1893740612235177 294.8130818441173 2.2156300869202097 294.87088500680886 C 2.2421303938954393 294.9292779976911 2.3205194138291616 294.9963835935621 2.372180692493842 295.0049782329128 C 2.394199701531748 295.00834867971696 2.417237953145624 295.01256173822213 2.4233786790785365 295.0144997451345 C 2.448110052657454 295.0203980270419 2.526414837667543 294.9958780265415 2.568026889942697 294.96849314625763 z"/>
  <title>Layer 1</title>
 </g>
</svg>